HIERARCHY
ROOT Hips
{
	OFFSET 0.00000 0.00000 0.00000
	CHANNELS 6 Xposition Yposition Zposition Zrotation Yrotation Xrotation 
	JOINT RightUpLegDummy
	{
		OFFSET 0 0 0
		CHANNELS 3 Zrotation Yrotation Xrotation
		JOINT RightUpLeg
		{
			OFFSET -3.52197 -3.41223 0.04002
			CHANNELS 3 Zrotation Yrotation Xrotation
			JOINT RightLeg
			{
				OFFSET 0.00006 -17.42390 1.60435
				CHANNELS 3 Zrotation Yrotation Xrotation
				JOINT RightFoot
				{
					OFFSET 0.06154 -16.50078 -1.63900
					CHANNELS 3 Zrotation Yrotation Xrotation
					JOINT RightToes
					{
						OFFSET 0.00298 -1.73825 3.34613
						CHANNELS 3 Zrotation Yrotation Xrotation
						End Site
						{
							OFFSET 0.00480 -0.05416 3.85043
						}
					}
				}
			}
		}
	}
	JOINT SpineDummy
	{
		OFFSET 0 0 0
		CHANNELS 3 Zrotation Yrotation Xrotation
		JOINT Spine
		{
			OFFSET 0.00000 4.68130 0.00000
			CHANNELS 3 Zrotation Yrotation Xrotation
			JOINT Spine1
			{
				OFFSET -0.00000 10.10138 0.05002
				CHANNELS 3 Zrotation Yrotation Xrotation
				JOINT HEadDummy
				{
					OFFSET 0 0 0
					CHANNELS 3 Zrotation Yrotation Xrotation
					JOINT Head
					{
						OFFSET -0.00000 3.43865 0.00438
						CHANNELS 3 Zrotation Yrotation Xrotation
						End Site
						{
							OFFSET -0.11417 5.02924 0.98962
						}
					}
				}
				JOINT LeftShoulder1Dummy
				{
					OFFSET 0 0 0
					CHANNELS 3 Zrotation Yrotation Xrotation
					JOINT LeftShoulder1
					{
						OFFSET 3.53937 -0.14262 -0.08662
						CHANNELS 3 Zrotation Yrotation Xrotation
						JOINT LeftArm
						{
							OFFSET 4.04833 -0.00133 0.12681
							CHANNELS 3 Zrotation Yrotation Xrotation
							JOINT LeftForeArm
							{
								OFFSET 10.33880 -0.01036 -0.55515
								CHANNELS 3 Zrotation Yrotation Xrotation
								JOINT LeftHand
								{
									OFFSET 8.69677 0.07543 0.40060
									CHANNELS 3 Zrotation Yrotation Xrotation
									End Site
									{
										OFFSET 5.28377 -0.21905 0.59205
									}
								}
							}
						}
					}
				}
				JOINT RightShoulderDummy
				{
					OFFSET 0 0 0
					CHANNELS 3 Zrotation Yrotation Xrotation
					JOINT RightShoulder
					{
						OFFSET -3.53937 -0.14262 -0.08660
						CHANNELS 3 Zrotation Yrotation Xrotation
						JOINT RightArm
						{
							OFFSET -4.04833 -0.00133 0.12683
							CHANNELS 3 Zrotation Yrotation Xrotation
							JOINT RightForeArm
							{
								OFFSET -10.37987 -0.01039 -0.55511
								CHANNELS 3 Zrotation Yrotation Xrotation
								JOINT RightHand
								{
									OFFSET -8.67398 0.07538 0.40058
									CHANNELS 3 Zrotation Yrotation Xrotation
									End Site
									{
										OFFSET -5.24810 -0.21916 0.59204
									}
								}
							}
						}
					}
				}
			}
		}
	}
	JOINT LeftUpLegDummy
	{
		OFFSET 0 0 0
		CHANNELS 3 Zrotation Yrotation Xrotation
		JOINT LeftUpLeg
		{
			OFFSET 3.52197 -3.41223 0.04002
			CHANNELS 3 Zrotation Yrotation Xrotation
			JOINT LeftLeg
			{
				OFFSET -0.00012 -17.42399 1.60337
				CHANNELS 3 Zrotation Yrotation Xrotation
				JOINT LeftFoot
				{
					OFFSET -0.09972 -16.50070 -1.63802
					CHANNELS 3 Zrotation Yrotation Xrotation
					JOINT LeftToes
					{
						OFFSET -0.01575 -1.73823 3.34611
						CHANNELS 3 Zrotation Yrotation Xrotation
						End Site
						{
							OFFSET 0.03150 -0.01868 3.85031
						}
					}
				}
			}
		}
	}
}
MOTION
Frames: 9
Frame Time: 0.033333
-6.3257 39.2859 5.3828 -177.5350 36.5087 -174.9260 0.0000 0.0000 0.0000 -3.6447 -4.0405 -8.4044 -3.7124 -5.7972 14.1529 12.6479 -0.5307 -6.7019 -0.0000 -0.0000 0.0000 0.0000 0.0000 0.0000 -3.3776 0.8050 2.1336 2.1171 0.0525 26.4547 0.0000 0.0000 0.0000 -12.1281 29.7052 -20.6802 0.0000 0.0000 0.0000 -18.6253 -4.8446 2.0956 -52.8362 -15.7801 19.0417 -0.4286 -83.6356 9.0346 19.6190 -3.1762 -1.4303 0.0000 0.0000 0.0000 15.2235 2.2777 1.2666 60.7797 14.0817 20.1734 179.9030 72.0962 -171.3580 -11.2812 3.6596 -0.8504 0.0000 0.0000 0.0000 9.2294 2.4338 -15.2527 4.0038 7.8454 19.4917 -8.1862 0.4526 -5.5249 0.0000 0.0000 -0.0000
-6.3257 39.2859 5.3840 -177.5250 36.5087 -174.9150 0.0000 0.0000 0.0000 -3.6408 -4.0392 -8.3965 -3.6965 -5.7837 14.1245 12.6725 -0.5322 -6.6987 -0.0000 -0.0000 0.0000 0.0000 0.0000 0.0000 -3.3641 0.7939 2.1333 2.0829 0.0540 26.4704 0.0000 0.0000 0.0000 -12.1776 29.7287 -20.7136 0.0000 0.0000 0.0000 -18.6164 -4.8220 2.0957 -52.8469 -15.8234 19.0738 -0.4508 -83.6526 9.0067 19.5988 -3.1315 -1.4215 0.0000 0.0000 0.0000 15.2156 2.2687 1.2666 60.8224 14.0857 20.2544 179.9044 72.0958 -171.4136 -11.1904 3.4952 -0.8287 0.0000 0.0000 0.0000 9.2318 2.5504 -15.2686 3.9576 7.7431 19.4980 -8.1298 0.4490 -5.5244 0.0000 0.0000 -0.0000
-6.3257 39.2859 5.3871 -177.5030 36.5087 -174.8870 0.0000 0.0000 0.0000 -3.6268 -4.0325 -8.4023 -3.6845 -5.7862 14.0986 12.7087 -0.5345 -6.6920 -0.0000 -0.0000 0.0000 0.0000 0.0000 0.0000 -3.3141 0.7800 2.1364 2.0143 0.0678 26.4882 0.0000 0.0000 0.0000 -12.2293 29.7846 -20.7578 0.0000 0.0000 0.0000 -18.6075 -4.8484 2.1010 -52.8376 -15.8613 19.0895 -0.4845 -83.7042 8.9679 19.5618 -3.1022 -1.4140 0.0000 0.0000 0.0000 15.2365 2.2468 1.2666 60.8455 14.1029 20.3220 179.9155 72.0914 -171.4431 -11.1347 3.3824 -0.8144 0.0000 0.0000 0.0000 9.2451 2.6168 -15.3052 3.9305 7.6760 19.5217 -8.0919 0.4465 -5.5230 0.0000 0.0000 -0.0000
-6.3257 39.2859 5.3910 -177.4910 36.5087 -174.8660 0.0000 0.0000 0.0000 -3.6147 -4.0232 -8.4205 -3.6862 -5.8018 14.0931 12.7290 -0.5358 -6.6895 -0.0000 -0.0000 0.0000 0.0000 0.0000 0.0000 -3.2814 0.7762 2.1543 1.9771 0.0800 26.4804 0.0000 0.0000 0.0000 -12.2253 29.8357 -20.7556 0.0000 0.0000 0.0000 -18.6254 -4.9189 2.1201 -52.8037 -15.8577 19.0556 -0.4967 -83.7455 8.9602 19.5233 -3.1378 -1.4163 0.0000 0.0000 0.0000 15.2567 2.2295 1.2664 60.8412 14.1325 20.3089 179.9217 72.1001 -171.3847 -11.2134 3.5076 -0.8316 0.0000 0.0000 0.0000 9.2678 2.5197 -15.3301 3.9697 7.7566 19.5333 -8.1331 0.4492 -5.5157 0.0000 0.0000 -0.0000
-6.3245 39.2866 5.3940 -177.5050 36.5087 -174.8640 0.0000 0.0000 0.0000 -3.6175 -4.0238 -8.4320 -3.6902 -5.8009 14.0855 12.7398 -0.5365 -6.6885 -0.0000 -0.0000 0.0000 0.0000 0.0000 0.0000 -3.3052 0.7815 2.1745 1.9867 0.0809 26.4514 0.0000 0.0000 0.0000 -12.1755 29.8595 -20.6925 0.0000 0.0000 0.0000 -18.6628 -4.9624 2.1339 -52.7798 -15.8278 19.0030 -0.4687 -83.7443 8.9745 19.4702 -3.2029 -1.4217 0.0000 0.0000 0.0000 15.2435 2.2242 1.2649 60.8442 14.1710 20.2805 179.9299 72.1390 -171.3240 -11.3366 3.7191 -0.8601 0.0000 0.0000 0.0000 9.2764 2.3559 -15.3193 4.0396 7.9198 19.4998 -8.2149 0.4544 -5.4957 0.0000 0.0000 -0.0000
-6.3190 39.2893 5.3953 -177.5310 36.5079 -174.8640 0.0000 0.0000 0.0000 -3.6320 -4.0507 -8.4333 -3.6762 -5.7723 14.0579 12.7452 -0.5368 -6.6887 -0.0000 -0.0000 0.0000 0.0000 0.0000 0.0000 -3.3342 0.7823 2.1720 1.9760 0.0853 26.4292 0.0000 0.0000 0.0000 -12.1093 29.8819 -20.6064 0.0000 0.0000 0.0000 -18.6779 -4.9552 2.1337 -52.7875 -15.7907 18.9813 -0.3970 -83.7316 8.9688 19.3961 -3.2476 -1.4252 0.0000 0.0000 0.0000 15.2486 2.2210 1.2629 60.8353 14.2067 20.3005 179.9204 72.1753 -171.3946 -11.4025 3.7804 -0.8709 0.0000 0.0000 0.0000 9.2694 2.2614 -15.2943 4.0782 8.0281 19.4327 -8.2677 0.4577 -5.4691 0.0000 0.0000 -0.0000
-6.3118 39.2924 5.3959 -177.5420 36.5003 -174.8520 0.0000 0.0000 0.0000 -3.6401 -4.1103 -8.4259 -3.6354 -5.7326 14.0187 12.7274 -0.5357 -6.6892 -0.0000 -0.0000 0.0000 0.0000 0.0000 0.0000 -3.3097 0.7744 2.1579 1.9122 0.1057 26.4178 0.0000 0.0000 0.0000 -12.0393 29.9280 -20.5303 0.0000 0.0000 0.0000 -18.6521 -4.9352 2.1272 -52.8183 -15.7514 19.0128 -0.3879 -83.7420 9.0188 19.3321 -3.2664 -1.4231 0.0000 0.0000 0.0000 15.3246 2.2127 1.2608 60.7813 14.2175 20.3420 179.9003 72.1674 -171.5400 -11.4494 3.7037 -0.8677 0.0000 0.0000 0.0000 9.2693 2.2578 -15.2833 4.0689 8.0289 19.3761 -8.2694 0.4579 -5.4433 0.0000 0.0000 -0.0000
-6.3044 39.2945 5.3977 -177.5260 36.4793 -174.8420 0.0000 0.0000 0.0000 -3.6264 -4.1733 -8.4003 -3.5876 -5.7039 13.9857 12.6845 -0.5330 -6.6898 -0.0000 -0.0000 0.0000 0.0000 0.0000 0.0000 -3.2677 0.7753 2.1718 1.8710 0.1255 26.4006 0.0000 0.0000 0.0000 -11.9916 29.9732 -20.4679 0.0000 0.0000 0.0000 -18.6132 -4.9320 2.1226 -52.8622 -15.7208 19.0800 -0.4151 -83.7565 9.0736 19.3070 -3.2690 -1.4217 0.0000 0.0000 0.0000 15.4123 2.2018 1.2592 60.7196 14.2052 20.3666 179.8890 72.1255 -171.6285 -11.5071 3.6537 -0.8677 0.0000 0.0000 0.0000 9.2925 2.2805 -15.2755 4.0450 7.9851 19.3539 -8.2484 0.4565 -5.4231 0.0000 0.0000 -0.0000
-6.2962 39.2943 5.4012 -177.5000 36.4570 -174.8460 0.0000 0.0000 0.0000 -3.5976 -4.2052 -8.3628 -3.5594 -5.6964 13.9710 12.6456 -0.5305 -6.6946 -0.0000 -0.0000 0.0000 0.0000 0.0000 0.0000 -3.2793 0.7916 2.2087 1.9244 0.1190 26.3907 0.0000 0.0000 0.0000 -12.0142 29.9856 -20.4353 0.0000 0.0000 0.0000 -18.5918 -4.9398 2.1222 -52.9143 -15.7172 19.1443 -0.4197 -83.7325 9.0588 19.3068 -3.2512 -1.4191 0.0000 0.0000 0.0000 15.4246 2.1890 1.2586 60.7035 14.2234 20.4048 179.8775 72.1030 -171.7161 -11.4503 3.6192 -0.8601 0.0000 0.0000 0.0000 9.3286 2.2892 -15.2580 4.0335 7.9596 19.3552 -8.2356 0.4557 -5.4150 0.0000 0.0000 -0.0000
